<?xml version="1.0" encoding="UTF-8"?>
<svg id="a" data-name="Layer 1" xmlns="http://www.w3.org/2000/svg" width="1728" height="360" viewBox="0 0 1728 360">
  <path id="b" data-name="AJIRO" d="M1656,0h-216c-39.764,0-72,32.235-72,72h0v144h72V72h216v216h-396l-36-72h0c39.764,0,72-32.235,72-72v-72c0-39.765-32.235-72-72-72h-288v288h-72V0h-72v288h-91.27c12.25-21.18,19.27-45.77,19.27-72V0h-288v72h216v144c0,39.765-32.235,72-72,72h-216v-72h144s0-72,0-72h-144v-72h0c0-39.765-32.235-72-72-72h0S72,0,72,0h0C32.235,0,0,32.235,0,72h0v288h72V72h216v72h-144s0,72,0,72h144v72c0,39.764,32.235,72,72,72h576c39.764,0,72-32.235,72-72h0V72h216v72h-72v72l72,144h432c39.765,0,72-32.235,72-72V72c0-39.765-32.235-72-72-72Z" fill="#d5b56e"/>
</svg>